{
  "accessors": [
    {
      "bufferView": 2,
      "componentType": 5126,
      "count": 33005,
      "max": [
        0.8666257262229919,
        0.10883637517690659,
        0.8666257262229919
      ],
      "min": [
        -0.8666257262229919,
        -0.05276092514395714,
        -0.8666257262229919
      ],
      "type": "VEC3"
    },
    {
      "bufferView": 2,
      "byteOffset": 396060,
      "componentType": 5126,
      "count": 33005,
      "max": [
        1.0,
        1.0,
        1.0
      ],
      "min": [
        -1.0,
        -1.0,
        -1.0
      ],
      "type": "VEC3"
    },
    {
      "bufferView": 3,
      "componentType": 5126,
      "count": 33005,
      "max": [
        1.0,
        1.0,
        1.0,
        1.0
      ],
      "min": [
        -1.0,
        -1.0,
        -1.0,
        1.0
      ],
      "type": "VEC4"
    },
    {
      "bufferView": 1,
      "componentType": 5126,
      "count": 33005,
      "max": [
        0.9981426000595093,
        0.9995280504226685
      ],
      "min": [
        0.0004718899726867676,
        0.0004718899726867676
      ],
      "type": "VEC2"
    },
    {
      "bufferView": 1,
      "byteOffset": 264040,
      "componentType": 5126,
      "count": 33005,
      "max": [
        0.9981426000595093,
        0.9995280504226685
      ],
      "min": [
        0.0004718899726867676,
        0.0004718899726867676
      ],
      "type": "VEC2"
    },
    {
      "bufferView": 1,
      "byteOffset": 528080,
      "componentType": 5126,
      "count": 33005,
      "max": [
        0.9981426000595093,
        0.9995280504226685
      ],
      "min": [
        0.0004718899726867676,
        0.0004718899726867676
      ],
      "type": "VEC2"
    },
    {
      "bufferView": 0,
      "componentType": 5125,
      "count": 183936,
      "type": "SCALAR"
    }
  ],
  "asset": {
    "extras": {
      "author": "Keeya (https://sketchfab.com/keeya)",
      "license": "CC-BY-4.0 (http://creativecommons.org/licenses/by/4.0/)",
      "source": "https://sketchfab.com/3d-models/ship-steering-wheel-8cb6456fbeb745afa05e59063b07ecb1",
      "title": "Ship steering wheel"
    },
    "generator": "Sketchfab-14.2.0",
    "version": "2.0"
  },
  "bufferViews": [
    {
      "buffer": 0,
      "byteLength": 735744,
      "name": "floatBufferViews",
      "target": 34963
    },
    {
      "buffer": 0,
      "byteLength": 792120,
      "byteOffset": 735744,
      "byteStride": 8,
      "name": "floatBufferViews",
      "target": 34962
    },
    {
      "buffer": 0,
      "byteLength": 792120,
      "byteOffset": 1527864,
      "byteStride": 12,
      "name": "floatBufferViews",
      "target": 34962
    },
    {
      "buffer": 0,
      "byteLength": 528080,
      "byteOffset": 2319984,
      "byteStride": 16,
      "name": "floatBufferViews",
      "target": 34962
    }
  ],
  "buffers": [
    {
      "byteLength": 2848064,
      "uri": "scene.bin"
    }
  ],
  "images": [
    {
      "uri": "textures/Wheel_baseColor.png"
    },
    {
      "uri": "textures/Wheel_metallicRoughness.png"
    },
    {
      "uri": "textures/Wheel_normal.png"
    }
  ],
  "materials": [
    {
      "doubleSided": true,
      "name": "Wheel",
      "normalTexture": {
        "index": 2
      },
      "pbrMetallicRoughness": {
        "baseColorTexture": {
          "index": 0
        },
        "metallicRoughnessTexture": {
          "index": 1
        }
      }
    }
  ],
  "meshes": [
    {
      "name": "Wheel_Wheel_0",
      "primitives": [
        {
          "attributes": {
            "NORMAL": 1,
            "POSITION": 0,
            "TANGENT": 2,
            "TEXCOORD_0": 3,
            "TEXCOORD_1": 4,
            "TEXCOORD_2": 5
          },
          "indices": 6,
          "material": 0,
          "mode": 4
        }
      ]
    }
  ],
  "nodes": [
    {
      "children": [
        1
      ],
      "matrix": [
        1.0,
        0.0,
        0.0,
        0.0,
        0.0,
        2.220446049250313e-16,
        -1.0,
        0.0,
        0.0,
        1.0,
        2.220446049250313e-16,
        0.0,
        0.0,
        0.0,
        0.0,
        1.0
      ],
      "name": "Sketchfab_model"
    },
    {
      "children": [
        2
      ],
      "matrix": [
        0.009999999776482582,
        0.0,
        0.0,
        0.0,
        0.0,
        0.0,
        0.009999999776482582,
        0.0,
        0.0,
        -0.009999999776482582,
        0.0,
        0.0,
        0.0,
        0.0,
        0.0,
        1.0
      ],
      "name": "befb53e3b78245be8391f31e94b8cdc4.fbx"
    },
    {
      "children": [
        3
      ],
      "name": "RootNode"
    },
    {
      "children": [
        4
      ],
      "matrix": [
        100.0,
        0.0,
        0.0,
        0.0,
        0.0,
        -1.629206793918314e-05,
        -99.99999999999868,
        0.0,
        0.0,
        99.99999999999868,
        -1.629206793918314e-05,
        0.0,
        0.0,
        0.0,
        0.0,
        1.0
      ],
      "name": "Wheel"
    },
    {
      "mesh": 0,
      "name": "Wheel_Wheel_0"
    }
  ],
  "samplers": [
    {
      "magFilter": 9729,
      "minFilter": 9987,
      "wrapS": 10497,
      "wrapT": 10497
    }
  ],
  "scene": 0,
  "scenes": [
    {
      "name": "Sketchfab_Scene",
      "nodes": [
        0
      ]
    }
  ],
  "textures": [
    {
      "sampler": 0,
      "source": 0
    },
    {
      "sampler": 0,
      "source": 1
    },
    {
      "sampler": 0,
      "source": 2
    }
  ]
}
